# xmcd CD database file
#
# Track frame offsets:
# 150
# 29998
# 64041
# 93546
# 124829
# 169615
# 209236
# 267139
#
# Disc length: 4264 seconds
#
# Revision: 3
# Processed by: cddbd v1.5.2PL0 Copyright (c) Steve Scherf et al.
# Submitted via: CDex 1.50
#
DISCID=7a10a608
DTITLE=Sigur Rós - ( )
DYEAR=2002
DGENRE=Post-rock
TTITLE0=untitled No.1 (Vaka)
TTITLE1=untitled No.2 (Fyrsta)
TTITLE2=untitled No.3 (Samskeyti)
TTITLE3=untitled No.4 (Njósnavélin)
TTITLE4=untitled No.5 (Álafoss)
TTITLE5=untitled No.6 (E-Bow)
TTITLE6=untitled No.7 (Dauðalagið)
TTITLE7=untitled No.8 (Popplagið)
EXTD=YEAR: 2002
EXTT0=
EXTT1=
EXTT2=
EXTT3=
EXTT4=
EXTT5=
EXTT6=
EXTT7=
PLAYORDER=
